<svg xmlns:dc="http://purl.org/dc/elements/1.1/" xmlns:cc="http://creativecommons.org/ns#" xmlns:rdf="http://www.w3.org/1999/02/22-rdf-syntax-ns#" xmlns:svg="http://www.w3.org/2000/svg" xmlns="http://www.w3.org/2000/svg" viewBox="0 0 20 20" fill="none"><metadata><rdf:RDF><cc:Work><dc:format>image/svg+xml</dc:format><dc:type rdf:resource="http://purl.org/dc/dcmitype/StillImage"/><dc:title>Pixel Art</dc:title><dc:creator><cc:Agent><dc:title>Plastic Jam</dc:title></cc:Agent></dc:creator><cc:license rdf:resource="https://github.com/dicebear/dicebear/blob/main/packages/%40dicebear/pixel-art/LICENSE"/></cc:Work></rdf:RDF></metadata><mask id="avatarsRadiusMask"><rect width="20" height="20" rx="0" ry="0" x="0" y="0" fill="#fff"/></mask><g mask="url(#avatarsRadiusMask)"><path d="M6 4V3h8v1h1v1h1v3h1v3h-1v2h-1v1h-1v1h-2v1h4v1h1v3H3v-3h1v-1h4v-1H6v-1H5v-1H4v-2H3V8h1V5h1V4h1Z" fill="rgba(234, 195, 147, 1)"/><path d="M6 3v1H5v1H4v3H3v3h1v2h1v1h1v1h8v-1h1v-1h1v-2h1V8h-1V5h-1V4h-1V3H6Z" fill="#fff" fill-opacity=".1"/><g/><g><g fill-rule="evenodd" clip-rule="evenodd"><path d="M5 8h3v1H5V8Zm7 0h3v1h-3V8Z" fill="#fff"/><path d="M6 8h1v1H6V8Zm7 0h1v1h-1V8Z" fill="#000"/></g></g><g><g fill-rule="evenodd" clip-rule="evenodd"><path d="M5 6h2v1H5V6Zm8 0h2v1h-2V6Z" fill="rgba(97, 28, 23, 1)"/><path d="M5 6h2v1H5V6Zm8 0h2v1h-2V6Z" fill="#000" fill-opacity=".1"/></g></g><g><path d="M9 13v1h2v-1h1v-1h-1v1H9Z" fill="rgba(201, 130, 118, 1)"/></g><g><path d="M3 8h1V5h12v3h1V4h-1V3h-1V2H5v1H4v1H3v4Z" fill="rgba(97, 28, 23, 1)"/></g><g/><g/><g/><g><path d="M3 20v-3h1v-1h3v-1h1v1h1v1h2v-1h.965L12 15h1v1h3v1h1v3H3Z" fill="rgba(66, 139, 202, 1)"/><path fill-rule="evenodd" clip-rule="evenodd" d="M6 16H4v1H3v3h6v-2H8v-1H6v-1Zm2 0h1-1Zm3 0h1-1Zm2 0h1v1h-2v1h-1v2h6v-3h-1v-1h-3Z" fill="#fff" fill-opacity=".2"/></g></g></svg>