<svg xmlns:dc="http://purl.org/dc/elements/1.1/" xmlns:cc="http://creativecommons.org/ns#" xmlns:rdf="http://www.w3.org/1999/02/22-rdf-syntax-ns#" xmlns:svg="http://www.w3.org/2000/svg" xmlns="http://www.w3.org/2000/svg" viewBox="0 0 20 20" fill="none"><metadata><rdf:RDF><cc:Work><dc:format>image/svg+xml</dc:format><dc:type rdf:resource="http://purl.org/dc/dcmitype/StillImage"/><dc:title>Pixel Art</dc:title><dc:creator><cc:Agent><dc:title>Plastic Jam</dc:title></cc:Agent></dc:creator><cc:license rdf:resource="https://github.com/dicebear/dicebear/blob/main/packages/%40dicebear/pixel-art/LICENSE"/></cc:Work></rdf:RDF></metadata><mask id="avatarsRadiusMask"><rect width="20" height="20" rx="0" ry="0" x="0" y="0" fill="#fff"/></mask><g mask="url(#avatarsRadiusMask)"><path d="M6 4V3h8v1h1v1h1v3h1v3h-1v2h-1v1h-1v1h-2v1h4v1h1v3H3v-3h1v-1h4v-1H6v-1H5v-1H4v-2H3V8h1V5h1V4h1Z" fill="rgba(255, 219, 172, 1)"/><path d="M6 3v1H5v1H4v3H3v3h1v2h1v1h1v1h8v-1h1v-1h1v-2h1V8h-1V5h-1V4h-1V3H6Z" fill="#fff" fill-opacity=".1"/><g/><g><g fill-rule="evenodd" clip-rule="evenodd"><path d="M5 7h3v2H5V7Zm7 0h3v2h-3V7Z" fill="#fff"/><path d="M5 8h2v1H5V8Zm7 0h2v1h-2V8Z" fill="#000"/></g></g><g><g fill-rule="evenodd" clip-rule="evenodd"><path d="M7 5h1v1h1v1H8V6H7V5Zm6 0v1h-1v1h-1V6h1V5h1Z" fill="rgba(96, 58, 20, 1)"/><path d="M7 5h1v1h1v1H8V6H7V5Zm6 0v1h-1v1h-1V6h1V5h1Z" fill="#000" fill-opacity=".1"/></g></g><g><path d="M8 12v1h1v1h2v-1h1v-1h-1v-1H9v1H8Z" fill="rgba(210, 153, 133, 1)"/><path d="M9 12v1h2v-1H9Z" fill="#fff" fill-opacity=".2"/></g><g><path d="M2 18h2v-1h4v-2H6v-1H5v-1H4V5h1V4h1v1h1V4h1v1h1V4h6v1h1v8h-1v1h-1v1h-2v2h4v1h2V4h-1V3h-1V2H4v1H3v1H2v14Z" fill="rgba(96, 58, 20, 1)"/></g><g/><g/><g/><g><path d="M3 20v-3h1v-1h4v1h4v-1h4v1h1v3H3Z" fill="rgba(209, 17, 65, 1)"/><path d="M15 20h2v-3h-1v-1h-4v1H8v-1H4v1H3v3h2v-2h10v2Z" fill="#fff" fill-opacity=".4"/></g></g></svg>