<svg xmlns:dc="http://purl.org/dc/elements/1.1/" xmlns:cc="http://creativecommons.org/ns#" xmlns:rdf="http://www.w3.org/1999/02/22-rdf-syntax-ns#" xmlns:svg="http://www.w3.org/2000/svg" xmlns="http://www.w3.org/2000/svg" viewBox="0 0 20 20" fill="none"><metadata><rdf:RDF><cc:Work><dc:format>image/svg+xml</dc:format><dc:type rdf:resource="http://purl.org/dc/dcmitype/StillImage"/><dc:title>Pixel Art</dc:title><dc:creator><cc:Agent><dc:title>Plastic Jam</dc:title></cc:Agent></dc:creator><cc:license rdf:resource="https://github.com/dicebear/dicebear/blob/main/packages/%40dicebear/pixel-art/LICENSE"/></cc:Work></rdf:RDF></metadata><mask id="avatarsRadiusMask"><rect width="20" height="20" rx="0" ry="0" x="0" y="0" fill="#fff"/></mask><g mask="url(#avatarsRadiusMask)"><path d="M6 4V3h8v1h1v1h1v3h1v3h-1v2h-1v1h-1v1h-2v1h4v1h1v3H3v-3h1v-1h4v-1H6v-1H5v-1H4v-2H3V8h1V5h1V4h1Z" fill="rgba(182, 134, 85, 1)"/><path d="M6 3v1H5v1H4v3H3v3h1v2h1v1h1v1h8v-1h1v-1h1v-2h1V8h-1V5h-1V4h-1V3H6Z" fill="#fff" fill-opacity=".1"/><g/><g><g fill-rule="evenodd" clip-rule="evenodd"><path d="M5 7h3v3H5V7Zm7 0h3v3h-3V7Z" fill="#fff"/><path d="M6 7h2v2H6V7Zm7 0h2v2h-2V7Z" fill="#000"/><path d="M6 7v1h1v1h1V8H7V7H6Zm7 0v1h1v1h1V8h-1V7h-1Z" fill="#fff" fill-opacity=".4"/><path d="M7 7v1h1V7H7Zm7 0h1v1h-1V7Z" fill="#fff" fill-opacity=".7"/></g></g><g><g fill-rule="evenodd" clip-rule="evenodd"><path d="M4 7V5h3v1H5v1H4Zm12-2v2h-1V6h-2V5h3Z" fill="rgba(96, 48, 21, 1)"/><path d="M4 7V5h3v1H5v1H4Zm12-2v2h-1V6h-2V5h3Z" fill="#000" fill-opacity=".1"/></g></g><g><path d="M10 12v1h1v1h1v-2h-2Z" fill="rgba(222, 15, 13, 1)"/></g><g><path d="M5 5h10V4h-1V3H6v1H5v1Z" fill="rgba(96, 48, 21, 1)"/></g><g><g fill-rule="evenodd" clip-rule="evenodd"><path d="M3 10v2h1v-2H3Zm13 0h1v2h-1v-2Z" fill="rgba(250, 250, 210, 1)"/><path d="M3 10v1h1v-1H3Zm13 0h1v1h-1v-1Z" fill="#fff" fill-opacity=".4"/></g></g><g/><g><path d="M4 4H2v1h16V4h-2V1H4v3Z" fill="rgba(166, 33, 22, 1)"/></g><g><path d="M3 20v-3h1v-1h5v1h2v-1h5v1h1v3H3Z" fill="rgba(255, 238, 173, 1)"/><path fill-rule="evenodd" clip-rule="evenodd" d="M3 17h14v1H3v-1Zm0 2v1h14v-1H3Z" fill="#fff" fill-opacity=".2"/></g></g></svg>