<svg xmlns:dc="http://purl.org/dc/elements/1.1/" xmlns:cc="http://creativecommons.org/ns#" xmlns:rdf="http://www.w3.org/1999/02/22-rdf-syntax-ns#" xmlns:svg="http://www.w3.org/2000/svg" xmlns="http://www.w3.org/2000/svg" viewBox="0 0 20 20" fill="none"><metadata><rdf:RDF><cc:Work><dc:format>image/svg+xml</dc:format><dc:type rdf:resource="http://purl.org/dc/dcmitype/StillImage"/><dc:title>Pixel Art</dc:title><dc:creator><cc:Agent><dc:title>Plastic Jam</dc:title></cc:Agent></dc:creator><cc:license rdf:resource="https://github.com/dicebear/dicebear/blob/main/packages/%40dicebear/pixel-art/LICENSE"/></cc:Work></rdf:RDF></metadata><mask id="avatarsRadiusMask"><rect width="20" height="20" rx="0" ry="0" x="0" y="0" fill="#fff"/></mask><g mask="url(#avatarsRadiusMask)"><path d="M6 4V3h8v1h1v1h1v3h1v3h-1v2h-1v1h-1v1h-2v1h4v1h1v3H3v-3h1v-1h4v-1H6v-1H5v-1H4v-2H3V8h1V5h1V4h1Z" fill="rgba(141, 85, 36, 1)"/><path d="M6 3v1H5v1H4v3H3v3h1v2h1v1h1v1h8v-1h1v-1h1v-2h1V8h-1V5h-1V4h-1V3H6Z" fill="#fff" fill-opacity=".1"/><g/><g><g fill-rule="evenodd" clip-rule="evenodd"><path d="M5 7v1h3V7H5Zm7 0h3v1h-3V7Z" fill="#fff"/><path d="M5 9V8h1V7h1v1h1v1H5Zm7 0V8h1V7h1v1h1v1h-3Z" fill="#000"/><path d="M5 9V8h1V7h1v1h1v1H7V8H6v1H5Zm7 0V8h1V7h1v1h1v1h-1V8h-1v1h-1Z" fill="#fff" fill-opacity=".5"/></g></g><g><g fill-rule="evenodd" clip-rule="evenodd"><path d="M7 5h1v1h1v1H8V6H7V5Zm6 0v1h-1v1h-1V6h1V5h1Z" fill="rgba(78, 26, 19, 1)"/><path d="M7 5h1v1h1v1H8V6H7V5Zm6 0v1h-1v1h-1V6h1V5h1Z" fill="#000" fill-opacity=".1"/></g></g><g><path d="M10 12v1H9v1h2v-2h-1Z" fill="rgba(201, 130, 118, 1)"/></g><g><path fill-rule="evenodd" clip-rule="evenodd" d="M3 11v5h2v-3H4v-2H3Zm0-3h2V5h10v3h2V4h-1V3H4v1H3v4Zm13 3h1v5h-2v-3h1v-2Z" fill="rgba(78, 26, 19, 1)"/></g><g/><g/><g/><g><path d="M3 20v-3h1v-1h3v2h6v-2h3v1h1v3H3Z" fill="rgba(174, 0, 1, 1)"/><path fill-rule="evenodd" clip-rule="evenodd" d="M5 16H4v1H3v3h2v-4Zm1 0h1v2h6v-2h1v4H6v-4Zm9 0h1v1h1v3h-2v-4Z" fill="#fff" fill-opacity=".2"/></g></g></svg>