<svg xmlns:dc="http://purl.org/dc/elements/1.1/" xmlns:cc="http://creativecommons.org/ns#" xmlns:rdf="http://www.w3.org/1999/02/22-rdf-syntax-ns#" xmlns:svg="http://www.w3.org/2000/svg" xmlns="http://www.w3.org/2000/svg" viewBox="0 0 20 20" fill="none"><metadata><rdf:RDF><cc:Work><dc:format>image/svg+xml</dc:format><dc:type rdf:resource="http://purl.org/dc/dcmitype/StillImage"/><dc:title>Pixel Art</dc:title><dc:creator><cc:Agent><dc:title>Plastic Jam</dc:title></cc:Agent></dc:creator><cc:license rdf:resource="https://github.com/dicebear/dicebear/blob/main/packages/%40dicebear/pixel-art/LICENSE"/></cc:Work></rdf:RDF></metadata><mask id="avatarsRadiusMask"><rect width="20" height="20" rx="0" ry="0" x="0" y="0" fill="#fff"/></mask><g mask="url(#avatarsRadiusMask)"><path d="M6 4V3h8v1h1v1h1v3h1v3h-1v2h-1v1h-1v1h-2v1h4v1h1v3H3v-3h1v-1h4v-1H6v-1H5v-1H4v-2H3V8h1V5h1V4h1Z" fill="rgba(162, 109, 61, 1)"/><path d="M6 3v1H5v1H4v3H3v3h1v2h1v1h1v1h8v-1h1v-1h1v-2h1V8h-1V5h-1V4h-1V3H6Z" fill="#fff" fill-opacity=".1"/><g/><g><g fill-rule="evenodd" clip-rule="evenodd"><path d="M5 7v1h3V7H5Zm7 0h3v1h-3V7Z" fill="#fff"/><path d="M5 9V8h1V7h1v1h1v1H5Zm7 0V8h1V7h1v1h1v1h-3Z" fill="#000"/><path d="M5 9V8h1V7h1v1h1v1H7V8H6v1H5Zm7 0V8h1V7h1v1h1v1h-1V8h-1v1h-1Z" fill="#fff" fill-opacity=".5"/></g></g><g><g fill-rule="evenodd" clip-rule="evenodd"><path d="M6 5h1v1h1v1H5V6h1V5Zm7 0h1v1h1v1h-3V6h1V5Z" fill="rgba(96, 48, 21, 1)"/><path d="M6 5h1v1h1v1H5V6h1V5Zm7 0h1v1h1v1h-3V6h1V5Z" fill="#000" fill-opacity=".1"/></g></g><g><path d="M10 12v1H9v1h2v-2h-1Z" fill="rgba(201, 130, 118, 1)"/></g><g><path fill-rule="evenodd" clip-rule="evenodd" d="M2 5v1h1v1h2V5h1V3H4v1H3v1H2Zm6-1h2v1h2V4h1V3H8v1Zm6 1h1v2h2V6h1V5h-1V4h-1V3h-2v2Z" fill="rgba(96, 48, 21, 1)"/></g><g/><g/><g/><g><path fill-rule="evenodd" clip-rule="evenodd" d="M4 16v4h4v-1H7v-1H6v-1H5v-1H4Zm12 0v4h-4v-1h1v-1h1v-1h1v-1h1Z" fill="rgba(174, 0, 1, 1)"/></g></g></svg>